<?xml version="1.0" standalone="no"?>
<!DOCTYPE svg PUBLIC "-//W3C//DTD SVG 20010904//EN"
 "http://www.w3.org/TR/2001/REC-SVG-20010904/DTD/svg10.dtd">
<svg version="1.0" xmlns="http://www.w3.org/2000/svg"
 width="1176.000000pt" height="1176.000000pt" viewBox="0 0 1176.000000 1176.000000"
 preserveAspectRatio="xMidYMid meet">
<metadata>
Created by potrace 1.14, written by Peter Selinger 2001-2017
</metadata>
<g transform="translate(0.000000,1176.000000) scale(0.100000,-0.100000)"
fill="#000000" stroke="none">
<path d="M5118 11755 c-2 -2 -17 -6 -33 -9 -17 -3 -41 -8 -55 -12 -14 -3 -34
-7 -46 -9 -38 -5 -171 -76 -199 -105 -43 -45 -64 -120 -58 -209 3 -42 6 -86 7
-98 0 -13 4 -23 8 -23 4 0 5 -12 3 -27 -2 -16 -4 -33 -4 -39 -1 -6 -15 -17
-32 -24 -16 -7 -26 -16 -22 -21 22 -21 98 -9 118 18 10 13 13 8 18 -28 8 -60
68 -200 122 -289 25 -39 45 -74 45 -76 0 -2 8 -13 17 -24 17 -20 44 -26 57
-13 7 7 10 8 67 19 l36 6 1 -44 c2 -44 2 -45 -40 -58 -24 -7 -63 -22 -88 -34
-25 -11 -63 -21 -85 -22 -41 -3 -98 -11 -102 -15 -2 -1 -6 -2 -10 -3 -53 -12
-151 -59 -196 -94 -38 -31 -121 -112 -114 -112 5 0 -2 -10 -15 -23 -13 -13
-32 -41 -43 -63 -11 -21 -23 -40 -27 -42 -5 -2 -8 -7 -8 -12 0 -4 -8 -25 -17
-46 -9 -22 -17 -42 -17 -46 -1 -3 -3 -9 -6 -12 -3 -3 -6 84 -5 192 0 189 1
197 20 200 31 6 83 49 101 84 24 46 26 153 4 241 -10 42 -21 80 -25 86 -3 6
-1 11 4 11 11 0 10 4 -21 63 -6 12 -23 44 -36 70 -29 55 -153 186 -197 207
-16 8 -32 17 -35 20 -11 11 -78 30 -108 30 -38 0 -55 -27 -50 -79 l3 -38 -55
17 c-59 18 -137 18 -181 1 -43 -16 -98 -70 -119 -116 -27 -59 -56 -188 -62
-267 -1 -21 -7 -38 -13 -38 -6 0 -7 -3 0 -8 6 -4 11 -34 12 -67 3 -94 5 -105
16 -105 6 0 8 -3 4 -6 -11 -12 22 -61 60 -91 60 -47 96 -55 256 -58 82 -2 151
-6 154 -9 3 -3 8 -50 10 -106 4 -75 1 -119 -12 -175 -10 -41 -22 -75 -26 -75
-5 0 -9 -6 -9 -14 0 -12 -46 -62 -95 -104 -8 -7 -49 -31 -90 -53 -41 -22 -98
-62 -127 -89 l-53 -49 -1 -208 c-1 -114 -3 -208 -4 -208 -1 0 -3 -34 -5 -75
-2 -41 -6 -95 -9 -120 -6 -48 -26 -185 -31 -211 -4 -18 -16 -108 -21 -154 -8
-71 -2 -226 10 -275 3 -14 8 -38 10 -55 2 -16 5 -32 6 -35 1 -3 1 -16 0 -29
-3 -38 34 -60 79 -49 20 5 46 11 58 13 12 3 51 19 88 35 37 17 73 30 80 30 8
0 21 8 31 18 10 9 18 15 18 13 1 -6 232 107 279 136 l37 23 0 -22 c0 -25 -16
-92 -30 -123 -4 -11 -16 -40 -25 -65 -17 -45 -103 -211 -115 -220 -3 -3 -19
-26 -35 -52 -17 -27 -33 -48 -37 -48 -5 0 -8 -7 -8 -15 0 -8 -4 -15 -10 -15
-5 0 -10 -5 -10 -11 0 -7 -72 -84 -159 -173 -159 -160 -251 -265 -251 -285 0
-6 -4 -11 -9 -11 -5 0 -16 -12 -24 -27 -61 -116 -89 -175 -103 -218 -8 -27
-18 -57 -21 -65 -31 -83 -36 -354 -9 -475 25 -107 76 -254 125 -354 25 -52 28
-69 27 -147 -1 -49 2 -101 6 -116 3 -15 2 -30 -3 -34 -5 -3 -7 -10 -3 -15 3
-6 8 -63 10 -127 4 -113 7 -170 18 -297 3 -33 8 -91 11 -130 9 -109 15 -176
21 -225 11 -104 13 -127 18 -160 2 -19 7 -63 11 -98 3 -35 8 -73 10 -84 3 -11
7 -46 11 -77 3 -31 8 -59 10 -63 2 -3 0 -8 -6 -10 -12 -4 -246 -227 -409 -389
-156 -156 -405 -419 -506 -534 -27 -32 -55 -63 -60 -69 -18 -19 -169 -199
-185 -220 -8 -10 -27 -33 -41 -50 -14 -17 -45 -58 -70 -91 -24 -33 -47 -62
-50 -65 -14 -12 -181 -263 -226 -340 -57 -99 -123 -233 -139 -285 -40 -127
-42 -142 -26 -176 9 -19 21 -37 27 -41 6 -5 6 -8 0 -8 -7 0 -7 -3 0 -8 6 -4
23 -24 38 -45 26 -34 27 -39 14 -65 -24 -48 -42 -77 -52 -84 -5 -4 -6 -8 -2
-8 4 0 -8 -25 -28 -55 -19 -31 -35 -57 -35 -59 0 -9 -132 -230 -145 -243 -8
-8 -15 -20 -15 -27 0 -7 -8 -21 -18 -32 -10 -10 -18 -22 -18 -26 1 -3 -9 -18
-21 -32 -13 -15 -23 -29 -23 -32 0 -11 -103 -141 -152 -192 -28 -29 -54 -48
-58 -43 -6 11 -50 4 -50 -8 0 -3 -11 -18 -24 -32 -24 -26 -101 -169 -91 -169
3 0 -1 -10 -9 -22 -8 -13 -17 -36 -20 -53 -4 -16 -9 -41 -12 -55 -2 -14 -9
-45 -14 -70 -16 -78 -5 -216 25 -305 50 -153 62 -221 60 -360 -1 -72 -5 -150
-9 -175 -15 -94 -17 -105 -22 -123 -12 -40 5 -72 53 -94 51 -23 82 -18 84 15
0 9 2 30 4 45 2 16 6 54 10 85 11 114 14 138 20 187 4 28 9 59 11 70 2 11 6
43 8 70 3 28 7 57 10 65 5 14 11 39 22 105 7 38 44 115 55 115 11 0 45 -66 53
-105 13 -63 17 -81 21 -115 2 -19 7 -46 10 -60 3 -14 7 -43 9 -65 4 -36 12
-107 22 -190 2 -16 6 -61 9 -100 7 -92 11 -125 16 -129 4 -3 123 -31 169 -40
14 -3 36 -8 50 -11 14 -3 36 -8 50 -11 14 -2 36 -7 50 -10 46 -11 55 -12 205
-36 80 -12 205 -17 220 -9 6 3 16 6 24 8 40 6 28 53 -21 83 -66 40 -166 115
-184 140 -7 8 -24 29 -39 45 -30 35 -82 107 -107 150 -58 100 -129 293 -144
395 -11 70 -11 74 -14 80 -5 12 -11 81 -13 153 -2 71 -4 78 -21 73 -17 -4 -18
0 -12 57 8 89 15 124 38 197 23 73 98 230 110 230 4 0 8 7 8 15 0 8 4 15 8 15
5 0 13 9 18 19 21 45 126 157 235 252 34 30 78 69 98 86 43 39 55 40 95 9 17
-12 47 -31 66 -41 19 -10 37 -21 40 -24 6 -8 78 -41 86 -40 4 0 10 -3 13 -8 5
-8 76 -39 166 -72 31 -11 64 -20 100 -26 11 -2 20 -4 20 -6 0 -1 18 -3 40 -4
37 -2 44 3 150 109 61 61 130 134 153 161 23 28 48 57 55 65 11 12 30 37 83
105 92 118 276 387 385 560 24 39 47 72 51 73 5 2 6 7 3 12 -3 4 2 13 10 20 8
7 15 19 15 26 0 8 4 14 8 14 5 0 14 10 20 23 11 19 11 18 6 -13 -4 -19 -11
-40 -16 -47 -5 -7 -7 -16 -4 -21 3 -6 -1 -29 -9 -53 -9 -24 -17 -57 -20 -74
-2 -16 -4 -30 -5 -30 -1 0 -4 -11 -7 -25 -7 -39 -11 -55 -13 -55 -1 0 -3 -7
-5 -15 -1 -8 -10 -49 -19 -90 -9 -41 -19 -86 -22 -100 -3 -14 -7 -32 -9 -40
-5 -17 -16 -75 -20 -105 -1 -11 -4 -21 -5 -22 -3 -4 -4 -9 -15 -68 -4 -27 -9
-54 -11 -60 -1 -5 -5 -21 -8 -35 -3 -14 -7 -35 -10 -46 -2 -12 -7 -39 -11 -60
-11 -73 -16 -99 -20 -114 -2 -8 -7 -40 -10 -70 -4 -30 -8 -57 -10 -60 -2 -3
-6 -29 -10 -59 -4 -30 -9 -63 -11 -75 -2 -12 -7 -41 -10 -66 -3 -25 -7 -56 -9
-70 -7 -41 -18 -142 -20 -185 -2 -22 -4 -40 -5 -40 -3 0 -12 -178 -14 -274
l-1 -94 61 -31 c33 -17 80 -39 105 -49 24 -10 53 -23 64 -27 62 -28 145 -58
145 -53 0 3 6 1 13 -5 6 -6 41 -20 77 -32 36 -12 67 -24 69 -26 5 -5 -28 -34
-74 -65 -19 -13 -35 -27 -35 -31 0 -5 -4 -8 -9 -8 -5 0 -43 -20 -85 -44 -77
-46 -268 -118 -318 -120 -15 0 -28 -3 -28 -6 0 -3 -10 -6 -22 -7 -13 -1 -41
-4 -63 -8 -22 -3 -51 -8 -65 -10 -82 -12 -108 -16 -130 -20 -14 -3 -41 -7 -60
-10 -19 -3 -53 -11 -75 -17 -22 -6 -46 -12 -52 -14 -22 -4 -159 -80 -189 -105
-58 -48 -104 -100 -104 -119 0 -25 33 -45 95 -58 28 -6 64 -16 80 -23 17 -7
36 -13 44 -15 8 -1 35 -9 60 -17 61 -20 166 -43 236 -52 17 -3 46 -7 65 -10
99 -16 353 -23 440 -11 99 12 137 18 152 22 9 3 25 6 35 8 14 3 81 21 113 31
3 1 19 7 35 14 17 6 53 21 81 32 28 11 57 30 63 42 83 156 201 277 284 293 34
6 95 -15 112 -39 8 -12 15 -17 15 -12 0 6 10 -6 22 -25 35 -56 48 -81 48 -96
0 -8 5 -14 10 -14 6 0 9 -3 8 -7 -1 -5 4 -26 10 -48 7 -22 18 -57 24 -77 11
-37 13 -38 57 -39 179 -4 221 -3 221 4 0 5 4 6 10 2 5 -3 20 -3 34 1 22 5 24
11 24 62 1 71 9 113 37 177 68 157 68 156 87 149 10 -3 31 -7 46 -9 33 -5 241
-42 262 -47 13 -3 14 22 11 187 -4 215 -6 1290 -2 1494 l3 133 47 -53 c25 -30
58 -67 73 -82 15 -16 28 -32 30 -35 2 -4 22 -24 44 -45 l42 -39 83 17 c46 9
93 18 104 20 11 3 29 7 40 9 11 2 39 9 63 16 24 6 55 13 70 15 15 2 40 8 55
14 16 6 34 11 40 11 7 0 41 -37 77 -82 36 -46 96 -119 134 -163 38 -44 87
-102 110 -129 22 -26 46 -53 51 -60 12 -14 95 -114 115 -140 8 -10 27 -33 41
-50 14 -17 47 -59 73 -93 l47 -63 -21 -28 c-12 -16 -22 -35 -24 -43 -1 -8 -6
-25 -10 -38 -4 -13 -9 -43 -11 -67 -1 -25 -5 -47 -7 -50 -3 -3 -2 -21 2 -40 5
-20 4 -34 -2 -34 -5 0 -7 -4 -3 -9 3 -5 7 -32 10 -59 12 -144 50 -230 142
-329 62 -67 127 -179 137 -235 3 -15 7 -32 11 -38 6 -10 13 -37 20 -75 2 -11
9 -45 15 -75 6 -30 14 -73 16 -95 6 -47 10 -52 49 -60 120 -25 133 -11 106
103 -7 27 -14 56 -15 63 -2 8 -6 25 -9 39 -4 14 -9 36 -11 50 -3 14 -8 39 -11
55 -3 17 -8 41 -12 55 -3 14 -7 27 -8 30 0 3 -5 28 -10 55 -4 28 -10 57 -11
65 -14 67 -21 206 -10 217 11 11 44 -9 57 -35 8 -15 17 -29 20 -32 11 -10 137
-263 159 -320 7 -19 19 -42 26 -50 7 -8 13 -18 13 -22 1 -5 2 -10 2 -13 1 -3
2 -8 3 -12 1 -5 17 -38 34 -76 18 -37 32 -70 32 -72 0 -2 12 -30 26 -60 24
-51 29 -55 53 -50 14 3 51 8 81 10 30 3 73 8 95 11 39 6 63 9 159 18 26 3 56
8 65 10 9 3 33 8 55 12 21 3 48 8 60 10 11 2 37 7 56 10 40 7 125 39 158 60
12 8 22 23 22 33 0 21 -33 36 -145 66 -76 21 -210 83 -272 127 -117 81 -248
202 -333 307 -19 24 -39 49 -45 55 -5 6 -26 34 -45 61 -19 28 -38 51 -42 53
-4 2 -8 9 -8 16 0 8 -9 25 -20 38 -11 14 -35 54 -54 89 -20 35 -42 63 -49 63
-9 -1 -23 25 -38 73 -12 41 -27 76 -31 79 -4 3 -8 15 -8 28 0 12 -4 26 -9 32
-5 5 -18 34 -29 64 -11 30 -26 69 -33 85 -7 17 -13 32 -14 35 -2 6 -12 30 -55
134 -16 39 -30 76 -30 81 -1 6 -7 19 -14 30 -7 11 -28 58 -47 105 -18 47 -36
87 -39 90 -3 3 -6 12 -8 20 -2 8 -9 29 -16 45 -8 17 -24 53 -36 80 -13 28 -23
52 -22 55 0 3 -6 16 -13 30 -18 34 -51 110 -59 138 -6 16 -3 23 11 27 38 12
171 80 226 118 57 38 87 42 87 12 0 -8 5 -15 10 -15 6 0 10 -6 10 -13 0 -7 8
-22 18 -33 9 -10 23 -31 31 -46 8 -16 18 -28 23 -28 4 0 8 -6 8 -13 0 -7 8
-22 18 -33 20 -23 39 -52 49 -74 4 -8 9 -17 13 -20 9 -7 83 -116 95 -141 5
-10 13 -19 17 -19 5 0 8 -6 8 -14 0 -8 4 -16 8 -18 7 -3 63 -79 112 -153 27
-42 165 -237 175 -248 14 -17 87 -117 107 -147 9 -14 30 -41 47 -60 17 -19 31
-39 31 -43 0 -9 17 -31 43 -55 9 -9 17 -20 17 -25 0 -5 6 -14 13 -22 7 -7 37
-44 67 -83 l53 -70 31 19 c31 18 138 103 230 182 68 58 326 315 357 355 15 20
31 31 40 27 22 -8 244 -238 335 -345 129 -154 294 -378 294 -400 0 -4 4 -10 8
-12 11 -4 92 -135 92 -148 0 -5 5 -10 10 -10 6 0 10 -6 10 -14 0 -8 6 -21 13
-28 20 -19 30 -68 15 -68 -14 0 -67 -24 -223 -102 -152 -75 -156 -77 -204
-119 -56 -47 -72 -90 -58 -160 13 -62 32 -71 133 -63 49 4 96 7 104 7 8 0 21
4 28 10 8 6 12 6 12 -2 0 -7 5 -9 10 -6 6 4 41 8 78 11 37 2 87 6 112 9 25 2
79 7 120 11 41 3 93 7 115 9 60 6 195 17 236 20 48 3 60 12 54 38 -3 12 -8 42
-10 67 -9 82 -15 125 -22 150 -3 14 -6 28 -5 32 1 4 -3 31 -9 60 -5 29 -12 64
-14 78 -2 14 -6 36 -9 50 -3 14 -10 48 -16 75 -6 28 -13 61 -16 75 -3 14 -7
32 -9 40 -2 8 -4 15 -5 15 -1 0 -4 11 -7 25 -6 30 -8 40 -15 60 -3 8 -20 60
-37 115 -32 101 -37 112 -87 220 -34 75 -103 185 -115 185 -5 0 -9 4 -9 10 0
15 -60 69 -110 98 -25 15 -46 30 -48 34 -2 4 -8 8 -14 8 -16 0 -101 61 -135
98 -31 32 -37 45 -34 65 0 4 -3 7 -8 7 -14 0 0 43 18 58 27 21 94 51 131 58
19 3 42 7 50 9 8 2 21 4 27 4 9 1 11 17 7 64 -22 227 -45 277 -119 263 -11 -2
-24 -1 -29 2 -6 3 -19 7 -30 8 -37 4 -53 10 -100 34 -44 22 -60 50 -36 65 6 4
8 10 5 15 -3 5 -1 11 5 15 17 11 11 46 -12 74 -13 15 -32 40 -43 55 -11 15
-29 38 -40 50 -11 12 -38 44 -60 71 -22 27 -58 69 -80 93 -22 25 -48 54 -58
66 -55 64 -360 386 -436 461 -180 177 -683 696 -758 782 -37 42 -148 166 -159
177 -12 13 -134 155 -149 174 -5 7 -17 21 -26 30 -9 9 -51 62 -95 117 -43 55
-85 106 -91 113 -7 7 -13 16 -13 20 0 4 -14 22 -30 41 -17 18 -30 37 -30 40 0
4 -8 16 -18 27 -24 25 -169 234 -211 304 -19 30 -39 58 -45 62 -6 5 -7 8 -1 8
6 0 6 3 0 8 -14 9 -125 195 -158 262 -6 14 -14 27 -17 30 -9 8 -148 293 -152
310 -2 8 -5 17 -8 20 -17 17 -38 83 -34 109 2 17 6 46 9 63 35 239 18 597 -37
793 -6 22 -13 46 -14 54 -21 110 -167 414 -231 479 -7 7 -13 16 -13 20 0 4
-20 30 -45 57 -24 28 -45 53 -45 56 0 8 21 17 32 15 15 -2 123 121 148 167 28
54 26 62 -41 200 -20 42 -35 77 -33 77 3 0 -6 19 -19 43 -13 23 -33 65 -44 92
-12 28 -38 86 -58 130 -20 44 -43 94 -50 110 -25 57 -104 232 -135 300 -16 34
-22 64 -20 95 1 25 3 55 3 68 1 12 5 23 9 23 4 1 14 2 21 3 6 1 16 0 22 -3 5
-2 23 -6 40 -8 16 -1 48 -5 70 -8 22 -3 78 -9 125 -12 425 -33 607 65 545 292
-9 35 -23 69 -31 76 -8 6 -14 16 -14 22 0 5 -11 25 -25 43 -14 18 -25 37 -25
42 0 6 -3 12 -7 14 -5 2 -30 37 -57 78 -57 87 -165 239 -183 258 -7 7 -13 18
-13 24 0 6 -8 18 -18 27 -10 9 -29 32 -42 51 -36 52 -104 136 -178 219 -36 40
-67 80 -68 89 -3 17 -27 42 -198 216 -101 102 -123 131 -146 186 -59 143 -110
197 -220 234 -66 23 -90 42 -90 71 0 28 -8 31 -90 35 -98 4 -164 8 -177 9 -7
1 -19 14 -28 30 -14 29 -14 30 15 36 45 10 55 52 55 245 0 91 -4 203 -8 250
-9 96 -12 119 -33 300 -11 93 -93 130 -296 135 -69 2 -128 2 -130 0z m-124
-1570 c-17 -55 -26 -93 -27 -112 0 -7 -5 -13 -10 -13 -5 0 -4 -6 2 -13 6 -8 8
-16 6 -19 -7 -6 -15 -66 -20 -131 -4 -62 -17 -76 -39 -43 -9 15 -14 26 -10 26
4 0 2 6 -3 13 -20 24 -7 140 23 203 24 51 85 145 91 140 1 -1 -5 -24 -13 -51z
m-892 -759 c10 -12 21 -25 25 -31 7 -8 46 -119 49 -135 4 -30 28 -92 39 -104
8 -8 15 -19 15 -25 0 -6 4 -11 9 -11 9 0 47 -57 48 -74 1 -5 6 -12 11 -15 5
-3 12 -16 16 -27 6 -18 -1 -25 -46 -44 -29 -12 -81 -36 -116 -51 -34 -16 -67
-29 -71 -29 -5 0 -11 -4 -13 -8 -4 -10 -97 -62 -110 -62 -7 0 -7 4 0 13 6 6
20 44 32 82 12 39 25 79 30 90 5 11 11 34 14 50 3 17 7 41 10 55 16 69 24 216
13 227 -4 3 -7 16 -7 28 0 13 -7 38 -15 58 -8 19 -11 37 -8 41 11 10 58 -7 75
-28z m2239 -156 c4 2 54 -16 84 -30 21 -9 65 -24 77 -25 3 0 9 -3 12 -6 8 -7
0 -8 -111 -13 l-93 -4 2 41 c1 48 7 64 18 47 4 -6 9 -11 11 -10z m-1161 -1175
c16 -35 38 -109 44 -145 3 -19 8 -48 11 -65 3 -16 8 -65 11 -107 2 -42 7 -87
9 -100 8 -42 39 -133 50 -146 22 -29 71 -78 92 -93 l21 -15 -25 -84 c-13 -47
-26 -89 -27 -95 -1 -5 -17 -57 -36 -115 -19 -58 -35 -110 -36 -117 -3 -18
-114 -365 -124 -391 -6 -13 -10 -32 -10 -42 0 -11 -4 -20 -8 -20 -5 0 -9 -6
-9 -12 0 -7 -13 -53 -29 -103 -15 -49 -28 -92 -29 -95 0 -3 -3 -9 -6 -15 -4
-5 -9 -22 -13 -37 -3 -15 -11 -39 -16 -54 l-11 -27 -29 34 c-16 19 -29 38 -30
42 0 7 -5 14 -35 50 -27 32 -155 219 -155 227 0 4 -3 10 -7 12 -10 4 -53 65
-53 75 0 4 -9 19 -20 33 -11 14 -20 33 -20 43 0 10 -4 16 -8 13 -5 -3 -16 17
-26 43 -17 49 -10 101 14 101 5 0 9 3 9 8 -3 17 2 30 21 52 11 12 17 27 14 31
-3 5 0 9 5 9 6 0 11 9 11 19 0 11 4 21 9 23 7 2 83 142 86 158 1 3 15 33 33
68 18 34 29 62 25 62 -5 0 -3 4 2 8 11 8 91 189 101 227 1 6 16 45 32 88 17
43 34 92 38 110 10 40 9 39 17 57 10 24 40 133 42 150 0 9 4 20 7 25 3 6 9 28
13 50 4 22 9 51 12 64 6 34 16 48 21 31 2 -8 7 -24 12 -35z m934 -3157 c8 -18
34 -73 57 -123 23 -49 42 -96 42 -102 0 -7 3 -13 7 -13 4 0 13 -18 20 -40 7
-22 17 -40 22 -40 4 0 8 -8 8 -17 0 -14 -25 15 -98 116 -9 14 -26 36 -38 50
-56 71 -65 90 -53 112 6 12 7 19 1 16 -5 -4 -5 10 2 33 5 22 11 40 13 40 1 0
9 -15 17 -32z"/>
</g>
</svg>
